<?xml version="1.0" encoding="UTF-8" standalone="no"?>
<!-- Created with Inkscape (http://www.inkscape.org/) -->

<svg
   xmlns:dc="http://purl.org/dc/elements/1.1/"
   xmlns:cc="http://creativecommons.org/ns#"
   xmlns:rdf="http://www.w3.org/1999/02/22-rdf-syntax-ns#"
   xmlns:svg="http://www.w3.org/2000/svg"
   xmlns="http://www.w3.org/2000/svg"
   xmlns:sodipodi="http://sodipodi.sourceforge.net/DTD/sodipodi-0.dtd"
   xmlns:inkscape="http://www.inkscape.org/namespaces/inkscape"
   width="500"
   height="500"
   id="svg2"
   version="1.1"
   inkscape:version="0.48.3.1 r9886"
   sodipodi:docname="drawing-4.svg"
   inkscape:export-filename="/home/ponomarev/Pictures/drawing-4.png"
   inkscape:export-xdpi="90"
   inkscape:export-ydpi="90">
  <defs
     id="defs4" />
  <sodipodi:namedview
     id="base"
     pagecolor="#ffffff"
     bordercolor="#666666"
     borderopacity="1.0"
     inkscape:pageopacity="0.0"
     inkscape:pageshadow="2"
     inkscape:zoom="1.0875302"
     inkscape:cx="119.99422"
     inkscape:cy="322.86676"
     inkscape:document-units="px"
     inkscape:current-layer="layer1"
     showgrid="true"
     inkscape:snap-grids="true"
     inkscape:snap-nodes="true"
     inkscape:snap-to-guides="true"
     inkscape:window-width="1280"
     inkscape:window-height="964"
     inkscape:window-x="-2"
     inkscape:window-y="-3"
     inkscape:window-maximized="1">
    <inkscape:grid
       type="xygrid"
       id="grid2985"
       empspacing="10"
       visible="true"
       enabled="true"
       snapvisiblegridlinesonly="true"
       spacingy="10px"
       spacingx="10px"
       dotted="false" />
  </sodipodi:namedview>
  <metadata
     id="metadata7">
    <rdf:RDF>
      <cc:Work
         rdf:about="">
        <dc:format>image/svg+xml</dc:format>
        <dc:type
           rdf:resource="http://purl.org/dc/dcmitype/StillImage" />
        <dc:title></dc:title>
      </cc:Work>
    </rdf:RDF>
  </metadata>
  <g
     inkscape:label="Layer 1"
     inkscape:groupmode="layer"
     id="layer1"
     transform="translate(0,-552.36218)">
    <g
       id="g3882"
       transform="matrix(0.97078188,-1.585801,0,1,5.1928641,319.5964)"
       inkscape:transform-center-x="21.298177"
       inkscape:transform-center-y="185.25648">
      <text
         transform="matrix(0.00133332,0.99999911,-0.99999911,0.00133332,0,0)"
         sodipodi:linespacing="125%"
         id="text3864"
         y="-230.63217"
         x="705.98602"
         style="font-size:16.73605537px;font-style:normal;font-weight:normal;line-height:125%;letter-spacing:0px;word-spacing:0px;writing-mode:lr-tb;fill:#000000;fill-opacity:1;stroke:none;font-family:Sans;-inkscape-font-specification:Sans"
         xml:space="preserve"><tspan
           style="font-style:normal;font-variant:normal;font-weight:bold;font-stretch:normal;font-family:Nimbus Roman No9 L;-inkscape-font-specification:Nimbus Roman No9 L Bold"
           y="-230.63217"
           x="705.98602"
           id="tspan3866"
           sodipodi:role="line">NORTHERN PACIFIC</tspan><tspan
           style="font-style:italic;font-variant:normal;font-weight:normal;font-stretch:normal;font-family:Nimbus Roman No9 L;-inkscape-font-specification:Nimbus Roman No9 L Italic"
           id="tspan3870"
           y="-209.04044"
           x="705.98602"
           sodipodi:role="line">Main Street of the Northwest</tspan><tspan
           style="font-style:italic;font-variant:normal;font-weight:normal;font-stretch:normal;font-family:Nimbus Roman No9 L;-inkscape-font-specification:Nimbus Roman No9 L Italic"
           id="tspan3868"
           y="-188.12038"
           x="705.98602"
           sodipodi:role="line" /></text>
    </g>
    <g
       id="g3942"
       transform="translate(102.11167,72.202957)">
      <g
         inkscape:transform-center-y="-71.871284"
         inkscape:transform-center-x="68.632838"
         transform="matrix(0.84005476,0.55073673,-0.41582784,0.64405913,303.25941,122.20236)"
         id="g3859">
        <rect
           style="fill:#ffffff;fill-opacity:1;stroke:#000000;stroke-width:1;stroke-linejoin:round"
           id="rect2996"
           width="200"
           height="50"
           x="0"
           y="602.36218" />
        <text
           xml:space="preserve"
           style="font-size:18px;font-style:normal;font-variant:normal;font-weight:normal;font-stretch:normal;line-height:125%;letter-spacing:0px;word-spacing:0px;fill:#000000;fill-opacity:1;stroke:none;font-family:Nimbus Roman No9 L;-inkscape-font-specification:Nimbus Roman No9 L"
           x="6.4031191"
           y="633.58716"
           id="text3855"
           sodipodi:linespacing="125%"><tspan
             style="font-weight:bold;-inkscape-font-specification:Nimbus Roman No9 L Bold"
             sodipodi:role="line"
             id="tspan3857"
             x="6.4031191"
             y="633.58716">NORTHERN PACIFIC</tspan></text>
      </g>
      <rect
         style="fill:#ffffff;fill-opacity:1;stroke:#000000;stroke-linejoin:round"
         id="rect2994"
         width="50"
         height="300"
         x="200"
         y="100"
         transform="matrix(0.97078188,-1.585801,0,1,5.1928641,871.95858)" />
      <g
         transform="matrix(0.84807583,0,0,1,29.512514,-0.69961257)"
         id="g3889">
        <g
           transform="matrix(0.99999914,0.54917597,0.00151315,1.0008319,-0.98817302,-110.00476)"
           inkscape:transform-center-y="95.087826"
           inkscape:transform-center-x="85.319284"
           id="g3915">
          <rect
             y="652.36218"
             x="0.57586551"
             height="300"
             width="200"
             id="rect2987"
             style="fill:#ffffff;fill-opacity:1;stroke:#000000;stroke-width:1.07456708;stroke-linejoin:round" />
          <g
             transform="matrix(0.33034621,0,0,0.33034619,18.555624,536.83297)"
             inkscape:label="Layer 1"
             id="layer1-8"
             style="display:inline">
            <path
               sodipodi:type="arc"
               style="fill:#000000;stroke:none"
               id="path3838"
               sodipodi:cx="755"
               sodipodi:cy="273.57144"
               sodipodi:rx="143.57143"
               sodipodi:ry="143.57143"
               d="m 898.57143,273.57144 c 0,79.29231 -64.27912,143.57143 -143.57143,143.57143 -79.29231,0 -143.57143,-64.27912 -143.57143,-143.57143 0,-79.29231 64.27912,-143.57142 143.57143,-143.57142 79.29231,0 143.57143,64.27911 143.57143,143.57142 z"
               transform="matrix(0.93515268,0,0,0.93515268,-458.18313,547.9842)" />
            <path
               style="fill:#ff0000"
               d="m 233.8326,930.13004 c 0.24187,-0.73662 -4.35791,-3.80239 -10.22174,-6.81283 -23.40326,-12.01509 -37.28277,-35.49517 -35.60943,-60.24074 0.78611,-11.6251 1.49661,-14.27185 6.65367,-24.78608 9.51774,-19.40481 28.07141,-31.28651 52.87091,-33.85831 4.8964,-0.50777 11.95613,-1.78943 15.68828,-2.84813 6.583,-0.71494 11.13361,-3.50726 15.64015,-6.55683 21.64847,-14.70118 29.715,-28.5944 33.06607,-56.95065 0.79302,-6.71036 -4.01847,-25.15289 -8.19067,-31.39505 -12.56011,-18.79157 -35.41707,-31.4621 -56.75595,-31.4621 -9.37456,0 -32.24216,4.43659 -41.39076,8.0303 -21.62027,8.49278 -39.36078,22.22025 -56.5288,45.6672 -10.42797,14.24183 -14.90379,20.02238 -20.53851,34.77377 -7.46357,19.53926 -9.54127,25.95987 -8.02798,50.3093 0.2197,20.85257 6.50479,27.22183 13.41208,41.93372 9.71026,19.7391 24.77077,35.80873 39.13842,47.80794 10.29816,8.60057 35.37963,21.80947 49.10452,25.86042 8.97905,2.65018 10.96353,2.73984 11.68974,0.52807 z"
               id="path3039"
               inkscape:connector-curvature="0"
               sodipodi:nodetypes="cssssccssssssccssc" />
            <path
               inkscape:connector-curvature="0"
               style="fill:#000000"
               d="m 211.20081,1010.4418 c -14.13998,-6.2837 -19.4921,-24.41613 -11.97357,-40.56517 7.13153,-15.3178 25.05827,-20.94977 37.65003,-11.82836 6.28719,4.55443 10.9638,11.86242 9.6995,15.15712 -1.40583,3.66353 -7.12211,2.29273 -9.75868,-2.3402 -1.37275,-2.41214 -4.8285,-5.32249 -7.78848,-6.55924 -14.20001,-5.93315 -26.03652,7.90085 -21.81532,25.49681 1.96077,8.1734 7.36014,12.54514 15.50515,12.55404 3.86192,0 5.97139,-1.196 10.25293,-5.83374 5.8116,-6.2951 10.28769,-7.02023 11.03699,-1.78803 0.51303,3.58233 -6.75707,12.47277 -12.7219,15.55727 -4.73592,2.449 -14.74446,2.5235 -20.08665,0.1495 z"
               id="path3930" />
            <path
               inkscape:connector-curvature="0"
               style="fill:#000000"
               d="m 258.74334,1009.1479 c -1.27384,-3.4525 -3.45345,-29.27658 -3.63347,-43.04925 -0.0849,-6.49603 0.45216,-8.76303 2.36333,-9.97579 5.24489,-3.32824 6.66139,1.18584 8.48643,27.0444 0.94393,13.37424 1.29504,25.41444 0.78027,26.75584 -1.364,3.5546 -6.58583,3.0483 -7.99656,-0.7752 z"
               id="path3928" />
            <path
               inkscape:connector-curvature="0"
               style="fill:#000000"
               d="m 281.4307,1006.2908 c -0.75086,-1.7679 -3.34937,-13.75767 -5.77449,-26.64394 -3.62712,-19.27341 -4.07641,-23.73961 -2.53275,-25.17734 1.0321,-0.96127 7.98368,-3.20552 15.44797,-4.9872 7.46428,-1.78169 15.30736,-4.1126 17.42906,-5.1798 4.7292,-2.37876 9.20092,-2.49737 10.57107,-0.28043 1.46814,2.3755 -3.96297,6.29587 -12.67093,9.14637 -4.10963,1.34526 -10.56623,3.99557 -14.34799,5.88959 -5.48771,2.74841 -6.78561,4.07852 -6.42857,6.58818 0.59077,4.1526 4.60392,4.60604 15.6713,1.77072 7.83369,-2.0069 9.13096,-2.02642 10.99199,-0.16539 3.27824,3.27824 -0.0956,6.11666 -11.3247,9.52739 -5.35276,1.62584 -10.36379,3.717 -11.13563,4.64701 -0.92653,1.1164 -0.74344,5.4911 0.53886,12.87534 1.06821,6.1514 1.59518,12.0888 1.17104,13.1941 -1.203,3.1349 -6.09196,2.3607 -7.60623,-1.2046 z"
               id="path3926" />
            <path
               inkscape:connector-curvature="0"
               style="fill:#000000"
               d="m 347.45571,976.29073 c -10.05548,-14.85391 -23.33121,-38.46724 -22.89972,-40.73137 0.71211,-3.73653 5.86141,-3.76016 9.2224,-0.0423 1.6277,1.80055 7.11494,10.66656 12.19387,19.70228 5.07891,9.03571 10.1135,17.8228 11.18797,19.52685 1.61526,2.56172 1.62893,3.48947 0.0789,5.35715 -2.99572,3.60961 -5.39072,2.6763 -9.78342,-3.81258 z"
               id="path3920" />
            <path
               inkscape:connector-curvature="0"
               style="fill:#000000"
               d="m 363.57143,960.37257 c -5.86283,-2.56874 -13.37704,-10.41152 -16.57152,-17.29612 -6.32098,-13.62272 -0.79218,-30.69859 12.11272,-37.41046 8.98223,-4.67167 23.74451,-1.37627 23.74451,5.30053 0,2.52795 -0.98903,2.82421 -9.42857,2.82421 -8.81793,0 -9.74314,0.31457 -14.28571,4.85714 -3.8024,3.8024 -4.85715,6.02423 -4.85715,10.23163 0,7.92262 5.7981,16.86252 13.28799,20.4883 8.36141,4.04769 10.47391,3.80389 16.14059,-1.86278 4.53731,-4.53732 4.85714,-5.47469 4.85714,-14.23546 0,-7.68429 0.48044,-9.63543 2.6598,-10.80179 7.46628,-3.99584 11.8349,12.59609 6.20688,23.57365 -6.88107,13.42163 -21.66448,19.67744 -33.86668,14.33115 z"
               id="path3918" />
            <path
               inkscape:connector-curvature="0"
               id="path3914"
               style="fill:#000000"
               d="m 150.35167,940.76813 c 2.56629,-3.45321 2.61114,-4.05778 0.59092,-7.9645 -2.85916,-5.52898 -13.09822,-14.72718 -16.39372,-14.72718 -1.42216,0 -4.39336,1.88672 -6.60266,4.19274 -5.43982,5.67796 -4.17559,9.91873 5.15579,17.29476 8.43914,6.67075 12.95297,6.98585 17.24967,1.20418 z m -11.45147,14.5073 c -5.41351,-1.31587 -13.7926,-6.83653 -19.64033,-12.94026 -4.96789,-5.18534 -6.92494,-5.28914 -12.95828,-0.6873 -5.4681,4.17073 -6.730257,4.3547 -9.228036,1.34506 -1.586576,-1.9117 -0.04651,-4.04637 10.896496,-15.10361 7.00933,-7.08247 15.83132,-15.48996 19.60442,-18.68329 8.09422,-6.85047 8.69363,-6.7293 22.16317,4.48017 10.2316,8.51482 13.12155,13.3231 13.11416,21.8193 -0.0114,13.50346 -11.3227,22.83966 -23.9516,19.76993 z m 40.19549,18.82279 c 0.38107,-0.6166 1.1449,-5.1166 1.6974,-10 1.18341,-10.46 0.17541,-11.01752 -8.08752,-4.47316 -6.77948,5.36946 -7.02066,8.66569 -0.91986,12.57274 5.10446,3.26899 6.27592,3.57353 7.30998,1.90042 z m -0.40386,26.26618 c -0.91192,-1.09881 -1.51127,-4.17674 -1.33192,-6.83988 0.44809,-6.65342 -0.44324,-7.66379 -11.81107,-13.38853 -10.1509,-5.11192 -11.10618,-5.12934 -16.48047,-0.30077 -1.71966,1.54505 -4.5525,2.55305 -6.42856,2.28748 -7.03986,-0.9966 -3.7097,-5.73553 16.59758,-23.6189 21.18911,-18.65994 24.34421,-20.19764 30.76851,-14.99555 3.08739,2.50001 3.13454,2.94522 1.62636,15.35714 -0.85427,7.03037 -2.2263,18.70876 -3.04896,25.95198 -0.82266,7.24323 -1.87351,14.15395 -2.33521,15.35713 -1.04946,2.7349 -5.35435,2.843 -7.55626,0.1899 z" />
            <path
               inkscape:connector-curvature="0"
               style="fill:#000000"
               d="M 96.428578,758.11852 C 76.72276,750.8402 58.065627,742.53173 56.949648,740.53759 c -1.615004,-2.88584 0.700603,-9.02716 4.053405,-10.7502 1.412611,-0.72594 11.033261,-1.72917 21.379225,-2.22937 28.078832,-1.35755 28.762472,-2.1802 10.385815,-12.49786 -19.707226,-11.06471 -23.141892,-14.90751 -16.859796,-18.86324 1.832197,-1.1537 6.614127,0.92675 22.142857,9.63363 10.893286,6.10781 20.930986,12.10428 22.305986,13.32548 3.46981,3.08172 3.12208,8.42822 -0.80346,12.35374 -2.86489,2.86489 -5.28308,3.43483 -18.21428,4.29285 -17.579737,1.16645 -24.196536,2.17948 -24.196536,3.70445 0,0.61196 6.48498,3.84913 14.411066,7.1937 14.6808,6.19486 17.52319,8.65425 13.99857,12.1123 -1.67202,1.64045 -3.09533,1.53209 -9.123922,-0.69455 z"
               id="path3910" />
            <path
               inkscape:connector-curvature="0"
               style="fill:#000000"
               d="m 387.29826,753.43359 c -3.19085,-8.52944 -3.11486,-9.18402 1.88335,-16.22613 2.72796,-3.84349 7.34933,-10.36333 10.26973,-14.48854 2.92039,-4.1252 4.85726,-7.95292 4.30415,-8.50603 -0.55312,-0.55312 -6.42819,1.68363 -13.05573,4.97056 -12.0155,5.95907 -15.42487,6.38841 -17.05232,2.14737 -1.25947,-3.28213 2.57392,-6.77657 14.77457,-13.46826 5.97505,-3.27711 13.1137,-7.22787 15.8637,-8.77946 2.75,-1.55158 7.5051,-4.13406 10.56689,-5.73884 l 5.56687,-2.91779 4.07599,4.56181 c 2.24178,2.50899 4.07597,5.13901 4.07597,5.84447 0,0.70547 -2.58082,4.39175 -5.73516,8.19175 C 411.10466,723.15746 400,738.3868 400,740.343 c 0,3.23855 4.65253,2.39385 20.30859,-3.6872 16.84074,-6.54117 20.5222,-6.99905 21.87991,-2.72127 1.24457,3.9213 -0.3354,5.32373 -9.5485,8.47562 -4.202,1.43754 -14.38834,5.22911 -22.63633,8.42571 -17.34533,6.7224 -21.00571,7.14119 -22.70541,2.59773 z"
               id="path3908" />
            <path
               inkscape:connector-curvature="0"
               id="path3900"
               style="fill:#000000"
               d="m 130.89165,696.98315 c 3.25823,-2.12941 7.66926,-11.18969 7.67444,-15.76336 0.0119,-10.485 -8.84454,-18.85763 -19.94727,-18.85763 -4.86591,0 -6.8199,0.83067 -10.02505,4.26179 -7.96219,8.52357 -6.72906,17.95081 3.52582,26.95472 4.02813,3.53675 6.40934,4.4931 11.1444,4.4759 3.31195,-0.0114 6.7444,-0.49417 7.62766,-1.07142 z m -21.68259,7.53748 c -7.61654,-3.83274 -12.197967,-9.64151 -15.011872,-19.03348 -3.211732,-10.71981 3.672295,-25.44794 14.515362,-31.05511 8.92074,-4.6131 24.97711,-1.62436 33.10675,6.16249 4.14547,3.97069 8.1807,14.96557 8.1807,22.29017 0,7.95708 -5.36206,16.35975 -13.37109,20.95327 -9.41334,5.39899 -17.64041,5.6038 -27.41985,0.68266 z" />
            <path
               inkscape:connector-curvature="0"
               id="path3896"
               style="fill:#000000"
               d="m 164.69034,640.06172 c 13.2947,-6.65228 16.7972,-12.10947 11.51682,-17.94422 -3.24602,-3.5868 -5.4384,-3.31169 -14.66307,1.83995 -13.135,7.3354 -15.1233,10.28833 -11.49383,17.07005 1.99421,3.72621 5.75947,3.47782 14.64008,-0.96578 z M 160.62,678.41171 c -2.52731,-1.74183 -9.7939,-13.14857 -17.0497,-26.76384 -3.76849,-7.07142 -7.44852,-13.62533 -8.17785,-14.56422 -3.47805,-4.47743 -0.37024,-7.82684 16.03612,-17.28273 18.24612,-10.51625 24.02689,-11.7383 31.01016,-6.55556 5.81658,4.31686 7.90656,11.68867 5.84541,20.61805 l -1.65585,7.17357 7.40014,7.49323 c 8.04024,8.14137 8.89366,10.30825 4.59696,11.67197 -3.61826,1.14839 -6.6094,-0.5563 -13.55818,-7.72693 -6.51384,-6.72183 -10.00921,-7.24714 -18.07144,-2.71591 -7.31227,4.10972 -7.98904,6.97699 -3.52998,14.95513 4.0584,7.26127 4.54382,10.49522 1.96278,13.07626 -1.97608,1.97608 -2.70567,2.0703 -4.80857,0.62098 z m 232.65153,-1.89987 c 0.7892,-1.25339 1.04638,-3.82482 0.57151,-5.71428 -1.13378,-4.51127 -14.05738,-18.4354 -17.1107,-18.4354 -1.30941,0 -3.48434,1.68428 -4.83317,3.74284 -2.33483,3.5634 -2.31928,3.98881 0.32422,8.8735 3.16064,5.84027 14.24047,14.87175 17.46467,14.23593 1.18171,-0.23303 2.79427,-1.4492 3.58347,-2.70259 z m -27.63986,32.17935 c -1.56463,-1.88526 -1.13743,-3.70974 2.68223,-11.45562 2.49879,-5.06727 4.54324,-10.67773 4.54324,-12.46768 0,-1.89903 -2.31387,-5.51389 -5.55574,-8.67949 -6.20951,-6.06343 -8.61834,-5.80822 -14.386,1.52416 -6.19066,7.87015 -12.9154,9.42463 -12.9154,2.98552 0,-2.9037 12.78203,-18.93727 27.4538,-34.43763 l 7.8985,-8.34457 4.46903,2.31103 c 6.42367,3.32181 20.61211,17.76254 23.46251,23.87972 5.93599,12.73903 0.0286,24.03608 -13.64023,26.08483 -7.15765,1.07283 -7.72581,1.59135 -15.40195,14.05641 -4.51726,7.33545 -5.752,7.98699 -8.60999,4.54332 z" />
            <path
               inkscape:connector-curvature="0"
               style="fill:#000000"
               d="m 324.28571,672.40729 c -2.75,-1.5847 -9.25787,-5.10309 -14.46194,-7.81863 -5.20407,-2.71554 -9.84161,-5.92674 -10.30564,-7.13599 -0.46404,-1.20925 1.30043,-6.86716 3.92104,-12.57314 2.62062,-5.70598 7.17242,-16.28093 10.11512,-23.49989 2.9427,-7.21896 6.40038,-13.53414 7.68375,-14.03373 2.7243,-1.06052 29.90956,12.38998 35.48466,17.55681 3.3781,3.13072 3.48433,3.57894 1.35331,5.70996 -2.13102,2.13103 -3.38514,1.77653 -15.97652,-4.51607 -11.25032,-5.62239 -14.04268,-6.51434 -15.80782,-5.0494 -3.63883,3.01996 -1.6735,7.34897 5.1369,11.31495 3.99413,2.32595 6.60144,4.92824 6.88507,6.87181 0.54726,3.75005 -1.35957,3.9429 -9.74221,0.98533 -9.68487,-3.41702 -11.24082,-2.9305 -14.54954,4.54942 -2.07149,4.68293 -2.54812,7.36372 -1.58749,8.92857 0.75504,1.22996 6.1412,4.80773 11.96921,7.95058 8.82662,4.75991 10.59639,6.31077 10.59639,9.28572 0,4.69493 -4.13693,5.26395 -10.71429,1.4737 z"
               id="path3894" />
            <path
               inkscape:connector-curvature="0"
               style="fill:#000000"
               d="m 283.87087,653.34164 c -0.3963,-1.03272 0.32479,-6.88029 1.60239,-12.9946 2.78975,-13.35119 2.42384,-13.85325 -12.09313,-16.5924 -11.88122,-2.24183 -13.12054,-1.16508 -14.60042,12.68495 -1.16665,10.91863 -3.68077,15.26459 -7.89497,13.64745 -2.22858,-0.85519 -2.37827,-2.48774 -1.47837,-16.12392 0.5507,-8.34481 1.71313,-20.63667 2.58317,-27.31525 1.50832,-11.57816 1.74797,-12.14285 5.15332,-12.14285 3.15083,0 3.61627,0.67297 3.9522,5.71428 0.83375,12.51217 1.59354,13.05642 21.89905,15.68703 7.53736,0.97648 9.0098,-0.15918 10.42885,-8.04348 0.5161,-2.86748 1.85478,-5.97416 2.97485,-6.90374 2.97893,-2.47228 7.8879,-0.42754 7.8879,3.28557 0,6.03932 -8.97001,43.37722 -11.64548,48.47462 -1.53259,2.91993 -7.71922,3.35898 -8.76936,0.62234 z"
               id="path3892" />
            <path
               inkscape:connector-curvature="0"
               style="fill:#000000"
               d="m 217.18329,650.57645 c -0.72979,-1.76786 -2.67149,-11.21656 -4.31489,-20.99711 -1.6434,-9.78055 -3.70013,-18.64088 -4.5705,-19.68962 -1.15957,-1.3972 -3.75879,-1.66057 -9.72586,-0.98547 -6.59665,0.74632 -8.3036,0.50371 -8.98707,-1.27737 -1.27864,-3.33211 1.93503,-5.16703 15.66589,-8.94477 17.06904,-4.69616 29.28297,-5.89222 31.60454,-3.09489 3.0716,3.70105 0.52134,6.47466 -6.89059,7.49406 -3.83015,0.52679 -7.68958,1.83214 -8.57648,2.9008 -1.67853,2.0225 -0.60653,13.72381 3.0812,33.63267 0.95717,5.16749 1.32757,10.47107 0.82308,11.78571 -1.33977,3.49139 -6.54628,2.96233 -8.10932,-0.82401 z"
               id="path3890" />
            <path
               inkscape:connector-curvature="0"
               style="fill:#000000"
               d="m 24.285721,725.93359 c 0,-0.39286 -0.321428,-0.71429 -0.714285,-0.71429 -0.392858,0 -0.714286,0.32143 -0.714286,0.71429 0,0.39286 0.321428,0.71428 0.714286,0.71428 0.392857,0 0.714285,-0.32142 0.714285,-0.71428 z"
               id="path3041" />
            <path
               sodipodi:type="arc"
               style="fill:none;stroke:#000000;stroke-width:10.74567127;stroke-miterlimit:4;stroke-opacity:1;stroke-dasharray:none"
               id="path3068"
               sodipodi:cx="774.28571"
               sodipodi:cy="251.42857"
               sodipodi:rx="231.42856"
               sodipodi:ry="231.42856"
               d="m 1005.7143,251.42857 c 0,127.81447 -103.61413,231.42856 -231.42859,231.42856 -127.81447,0 -231.42856,-103.61409 -231.42856,-231.42856 0,-127.81446 103.61409,-231.428555 231.42856,-231.428555 127.81446,0 231.42859,103.614095 231.42859,231.428555 z"
               transform="translate(-526,552.36218)" />
          </g>
          <text
             transform="scale(0.76844395,1.3013311)"
             sodipodi:linespacing="125%"
             id="text3872"
             y="539.42651"
             x="19.998419"
             style="font-size:26.77419662px;font-style:normal;font-weight:normal;line-height:125%;letter-spacing:0px;word-spacing:0px;writing-mode:lr-tb;fill:#000000;fill-opacity:1;stroke:none;font-family:Sans"
             xml:space="preserve"><tspan
               style="font-style:normal;font-variant:normal;font-weight:bold;font-stretch:normal;font-family:Nimbus Roman No9 L;-inkscape-font-specification:Nimbus Roman No9 L Bold"
               y="539.42651"
               x="19.998419"
               id="tspan3874"
               sodipodi:role="line">PLAYING CARDS</tspan></text>
          <text
             sodipodi:linespacing="125%"
             id="text3876"
             y="912.17944"
             x="12.672853"
             style="font-size:12.10051155px;font-style:normal;font-weight:normal;line-height:125%;letter-spacing:0px;word-spacing:0px;writing-mode:lr-tb;fill:#000000;fill-opacity:1;stroke:none;font-family:Sans"
             xml:space="preserve"><tspan
               y="912.17944"
               x="12.672853"
               id="tspan3878"
               sodipodi:role="line">Main Street of the Northwest</tspan><tspan
               id="tspan3880"
               y="927.30505"
               x="12.672853"
               sodipodi:role="line" /></text>
        </g>
      </g>
    </g>
  </g>
</svg>
