<?xml version="1.0" encoding="UTF-8" standalone="no"?>
<!-- Created with Inkscape (http://www.inkscape.org/) -->

<svg
   xmlns:dc="http://purl.org/dc/elements/1.1/"
   xmlns:cc="http://creativecommons.org/ns#"
   xmlns:rdf="http://www.w3.org/1999/02/22-rdf-syntax-ns#"
   xmlns:svg="http://www.w3.org/2000/svg"
   xmlns="http://www.w3.org/2000/svg"
   xmlns:sodipodi="http://sodipodi.sourceforge.net/DTD/sodipodi-0.dtd"
   xmlns:inkscape="http://www.inkscape.org/namespaces/inkscape"
   width="500"
   height="300"
   id="svg2"
   version="1.1"
   inkscape:version="0.48.3.1 r9886"
   sodipodi:docname="drawing-2.svg">
  <defs
     id="defs4" />
  <sodipodi:namedview
     id="base"
     pagecolor="#ffffff"
     bordercolor="#666666"
     borderopacity="1.0"
     inkscape:pageopacity="0.0"
     inkscape:pageshadow="2"
     inkscape:zoom="1"
     inkscape:cx="255.9282"
     inkscape:cy="216.63242"
     inkscape:document-units="px"
     inkscape:current-layer="layer1"
     showgrid="false"
     inkscape:window-width="1280"
     inkscape:window-height="964"
     inkscape:window-x="-2"
     inkscape:window-y="-3"
     inkscape:window-maximized="1" />
  <metadata
     id="metadata7">
    <rdf:RDF>
      <cc:Work
         rdf:about="">
        <dc:format>image/svg+xml</dc:format>
        <dc:type
           rdf:resource="http://purl.org/dc/dcmitype/StillImage" />
        <dc:title />
      </cc:Work>
    </rdf:RDF>
  </metadata>
  <g
     inkscape:label="Layer 1"
     inkscape:groupmode="layer"
     id="layer1"
     transform="translate(0,-752.36218)">
    <path
       style="fill:#000000;stroke:#000000;stroke-width:3;stroke-miterlimit:4;stroke-opacity:1;stroke-dasharray:none"
       d="m 235.5,96.625 c -1.13139,-0.06263 -2.05482,0.418036 -2.40625,0.59375 -1.1566,0.578299 -3.08537,0.680516 -5.15625,0.59375 l 0,93.84375 c 10.51199,0.864 12.8125,2.73076 12.8125,10.21875 l 0,68.40625 c 0,8.64 -1.86176,10.348 -13.09375,11.5 l 0,3.59375 33.6875,0 0,-3.59375 c -11.80799,-0.864 -14.53125,-3.594 -14.53125,-14.25 l 0,-67.6875 36.28125,85.53125 3.875,0 36.28125,-87.6875 0,73.3125 c 0,8.064 -2.01251,9.77325 -12.8125,10.78125 l 0,3.59375 47.8125,0 0,-3.59375 c -11.23199,-1.44 -12.65625,-3.026 -12.65625,-13.25 l 0,-63.65625 c 0,-10.36799 2.14426,-12.49875 12.65625,-13.21875 l 0,-32.0625 c -3.32125,-1.3739 -7.08905,-2.67399 -10.59375,-3.40625 -5.08724,-1.06291 -9.52892,-0.74767 -12.71875,-3.9375 -2.61202,-2.61202 -11.07733,-5.42108 -13.4375,-7.78125 -1.31525,-1.31524 -6.8531,-3.22699 -8.96875,-3.96875 L 293.15625,256 270.0625,118.09375 c -2.0292,-1.46511 -3.95638,-3.05013 -5.75,-4.84375 -0.0242,-0.0242 -24.56072,-16.588607 -14.85171,-10.06158 1.29907,0.87332 -2.97462,-0.45995 -3.71079,-0.37592 7.06421,1.77608 1.16657,-1.36757 -1.375,-3.84375 -1.00835,-1.008353 -5.05087,-2.199536 -5.21875,-0.875 -2.33971,18.4603 18.61184,-0.236089 -3.65625,-1.46875 z m -15.40625,0.59375 c -6.39351,0 -9.13928,3.30401 -13.84375,5.65625 -3.12276,1.56138 -14.8079,7.43291 -16.46875,9.09375 -4.86393,4.86393 -10.60223,6.02111 -15.75,8.21875 l 0,71.46875 C 184.11124,192.37625 187,194.67501 187,201.875 l 0,29.8125 -34.71875,0 0,-29.8125 c 0,-7.19999 2.88876,-9.49875 12.96875,-10.21875 l 0,-65.84375 c -2.22782,1.18071 -5.37903,2.39264 -6.65625,3.03125 -10.82156,5.41078 -21.05203,7.61453 -28.625,15.1875 -1.15075,1.15074 -4.35388,0.86444 -6.0625,1.71875 -2.08319,1.0416 -4.75873,2.24786 -7.1875,3.5625 l 0,42.34375 c 9.64799,0.864 12.25,3.01876 12.25,10.21875 l 0,69.6875 c 0,7.056 -2.17001,8.92275 -12.25,10.21875 l 0,3.59375 48.53125,0 0,-3.59375 c -10.51199,-1.152 -12.96875,-3.16275 -12.96875,-10.21875 l 0,-33.125 34.71875,0 0,33.125 c 0,7.056 -2.45676,9.06675 -12.96875,10.21875 l 0,3.59375 48.96875,0 0,-3.59375 c -10.36799,-1.296 -12.6875,-3.16275 -12.6875,-10.21875 l 0,-69.6875 c 0,-7.19999 2.89551,-9.49875 12.6875,-10.21875 l 0,-94.25 c -1.12394,-0.104757 -2.13383,-0.1875 -2.90625,-0.1875 z m 25.5,5.625 c 0.0233,-0.005 0.10074,0.006 0.15625,0 -0.0116,0.0164 -0.0427,0.0312 -0.0937,0.0312 -0.1107,0 -0.10951,-0.0203 -0.0625,-0.0312 z m 33.53125,20.8125 0,33.4375 27.4375,0 0,-19.40625 c -2.78424,-0.80131 -5.77997,-1.37372 -7.59375,-3.1875 -2.3478,-2.3478 -6.25506,-4.01815 -9.53125,-5.65625 -3.47813,-1.73906 -6.95322,-3.39529 -10.3125,-5.1875 z m -169.25,30 c -2.40521,0.65824 -5.98485,0.58617 -8.0625,1.625 -5.809429,2.90471 -13.949763,4.41852 -18.1875,8.65625 -2.24574,2.24574 -20.00813,3.97688 -20.375,4.34375 -2.954327,2.95433 -9.586525,2.65264 -13.84375,4.78125 -1.155402,0.57771 -6.657098,-1.0152 -7.8125,-0.4375 -1.374681,0.68735 -4.130323,1.09908 -5.1875,2.15625 -1.482937,1.48294 -6.251417,0.71691 -8.4375,1.71875 l 0,15.15625 c 9.93599,0.576 12.65625,2.73076 12.65625,10.21875 l 0,69.6875 c 0,7.488 -2.00026,9.06675 -12.65625,10.21875 l 0,3.59375 51.84375,0 0,-3.59375 C 66.564514,281.20525 63.96875,279.4825 63.96875,271.5625 l 0,-33.5625 C 78.656736,238.288 83.984002,243.63974 86,260.34375 l 3.59375,0 0,-48.6875 -3.59375,0 C 83.408003,228.07223 78.368736,233.125 63.96875,233.125 l 0,-33.40625 c 0,-5.32799 1.874758,-6.78125 9.21875,-6.78125 13.247987,0 21.754751,2.46001 26.21875,7.5 3.16799,3.6 4.734,7.49051 6.75,16.5625 l 3.46875,0 z m 259.15625,7.75 c -1.84319,0.0153 -4.68084,0.92307 -5.875,0.40625 l 1.375,75.625 c 0,29.66393 21.16078,50.6875 50.96875,50.6875 10.22399,0 18.73625,-2.45325 26.65625,-7.78125 4.60799,-3.168 7.77,-6.05 14.25,-13.25 L 456.09375,263.5 c -8.496,8.928 -17.10026,12.389 -24.15625,15.125 -4.176,1.728 -8.93676,2.59375 -12.96875,2.59375 -9.50399,0 -18.57401,-5.04325 -22.75,-12.53125 -4.176,-7.632 -6.1875,-18.00622 -6.1875,-32.40625 0,-29.80797 9.22001,-45.65625 26.5,-45.65625 6.76799,0 12.933,2.59051 19.125,8.0625 6.19199,5.616 9.5225,10.36851 14.5625,21.3125 l 3.59375,0 0,-40.375 c -1.93024,-0.57298 -6.60584,-0.25604 -7.96875,-0.9375 -2.26384,-1.13192 -3.47002,-1.72002 -4.78125,-3.03125 -1.17444,-1.17444 -13.05381,-0.92881 -15.59375,-3.46875 -0.97252,-0.97252 -11.2829,-0.2352 -12.5625,-0.875 -2.66341,-1.33171 -7.66925,-1.60676 -9.96875,-3.90625 -1.58867,-1.58868 -6.63007,0.30743 -8.21875,-1.28125 -2.23859,-2.23858 -9.88641,0.0511 -12.125,-2.1875 -2.26166,-2.26167 -9.32573,0.67427 -12.15625,-2.15625 -0.29342,-0.29342 -0.78108,-0.38017 -1.40625,-0.375 z"
       transform="translate(0,752.36218)"
       id="rect3765"
       inkscape:connector-curvature="0"
       sodipodi:nodetypes="ssccssccccsccccsccccssccsssccccsccsssssccsccsccsssccssccccsccsccccssccsccscccccssccssssssccssccccsccccccssccccsccsccccscssccccsssssssss" />
    <path
       style="fill:#ff0000;stroke:#000000;stroke-width:1px;stroke-linecap:butt;stroke-linejoin:miter;stroke-opacity:1"
       d="m -3.4662045,180.41594 c 0.5777007,0 1.1554015,0 0,0 z"
       id="path3779"
       inkscape:connector-curvature="0"
       transform="translate(0,752.36218)" />
    <path
       style="fill:#ffffff;stroke:#000000;stroke-width:3;stroke-linecap:butt;stroke-linejoin:miter;stroke-miterlimit:4;stroke-opacity:1;stroke-dasharray:none"
       d="m 227.71782,848.1894 0,19 c 2.26867,0.99904 4.05624,3.65 5.71875,5.3125 1.06775,1.06776 2.70831,2.50594 4.21875,2.9375 1.09509,0.31288 2.43264,0.58889 3.03125,1.1875 5.23293,3.48091 2.48594,-3.2383 3.7812,-5.40625 0.45485,-1.36453 -0.60287,-4.763 0,-5.96875 0.63487,-1.26974 1.88765,-1.0625 3.15625,-1.0625 1.60492,0 4.47986,-0.61389 5.71875,0.625 0.40297,0.40297 0.68182,1.14772 1,1.625 0.55906,0.83859 1.19073,1.69721 1.5,2.625 0.32897,0.98691 0.99068,3.89693 1.625,4.53125 1.30762,1.30762 0.3943,-7.5193 0.4375,-7.5625 0.46932,-0.46932 2.92129,0.18825 3.34375,0.3125 2.25002,0.66178 4.43207,1.33153 6.625,2.0625 0.31939,0.10647 0.46722,0.46773 0.75,0.65625 0.28035,0.1869 0.81026,0.42773 1.4375,0.6875 l -0.21875,-1.28125 c -2.0292,-1.46511 -3.95638,-3.05013 -5.75,-4.84375 -15.40891,-16.13372 -30.53674,-14.97582 -36.37495,-15.4375 z m -7.84375,-0.59375 c -6.39351,0 -9.13928,3.30401 -13.84375,5.65625 -3.12276,1.56138 -14.8079,7.43291 -16.46875,9.09375 -4.86393,4.86393 -10.60223,6.02111 -15.75,8.21875 l 0,7.78125 c 0.16865,-0.0633 0.32506,-0.13756 0.375,-0.1875 0.12693,-0.12693 0.28145,-0.71915 0.40625,-0.96875 0.486,-0.97199 1.37235,-1.21743 2.1875,-1.625 0.439,-0.2195 4.94355,-1.02521 5.40625,-0.5625 1.04161,1.04161 0.73455,2.1875 2.5,2.1875 0.23612,0 0.76213,0.10331 0.96875,0 1.12351,-0.56175 4.64959,-1.21208 5.40625,-1.96875 0.78453,-0.78452 1.68448,-0.99798 2.625,-1.625 0.23651,-0.15767 0.47993,-0.69496 0.75,-0.875 0.54272,-0.36181 1.94102,-1.06367 2.59375,-1.28125 1.83718,-0.61239 3.77243,-0.96434 5.53125,-1.84375 1.30136,-0.65068 0.96875,1.34471 0.96875,2.0625 0,1.38973 0.44095,3.6459 0,4.96875 -0.10043,0.30129 -0.64225,1.639 -0.53125,1.75 0.43471,0.43471 2.60018,0.60992 3.34375,0.3125 1.97366,-0.78947 2.28601,-1.55402 3.5625,-3.46875 0.20073,-0.30109 0.3701,-0.90298 0.65625,-1.09375 2.12927,-1.41951 5.49299,-3.47386 6.84375,-5.5 0.27834,-0.4175 0.67778,-0.98056 0.84375,-1.3125 0.21791,-0.43582 -0.33168,-1.73082 0,-2.0625 0.29533,-0.29533 0.48669,-0.86835 0.875,-1.0625 0.74695,-0.37348 1.77941,-0.29595 2.5,-0.65625 0.29524,-0.14762 0.73556,-0.41982 1.15625,-0.59375 l 0,-15.15625 c -1.12394,-0.10476 -2.13383,-0.1875 -2.90625,-0.1875 z"
       id="path3796"
       inkscape:connector-curvature="0"
       sodipodi:nodetypes="ccssccsssssssscsccccsssccsssssssccssssscssssscsccs" />
  </g>
</svg>
