<?xml version="1.0" encoding="UTF-8" standalone="no"?>
<!-- Created with Inkscape (http://www.inkscape.org/) -->

<svg
   xmlns:dc="http://purl.org/dc/elements/1.1/"
   xmlns:cc="http://creativecommons.org/ns#"
   xmlns:rdf="http://www.w3.org/1999/02/22-rdf-syntax-ns#"
   xmlns:svg="http://www.w3.org/2000/svg"
   xmlns="http://www.w3.org/2000/svg"
   xmlns:xlink="http://www.w3.org/1999/xlink"
   xmlns:sodipodi="http://sodipodi.sourceforge.net/DTD/sodipodi-0.dtd"
   xmlns:inkscape="http://www.inkscape.org/namespaces/inkscape"
   width="200"
   height="200"
   id="svg2"
   version="1.1"
   inkscape:version="0.48.3.1 r9886"
   sodipodi:docname="drawing-5.svg"
   inkscape:export-filename="/home/ponomarev/Pictures/drawing-5.png"
   inkscape:export-xdpi="90"
   inkscape:export-ydpi="90">
  <sodipodi:namedview
     id="base"
     pagecolor="#ffffff"
     bordercolor="#666666"
     borderopacity="1.0"
     inkscape:pageopacity="0.0"
     inkscape:pageshadow="2"
     inkscape:zoom="3.74"
     inkscape:cx="100"
     inkscape:cy="100"
     inkscape:document-units="px"
     inkscape:current-layer="layer1"
     showgrid="true"
     width="200px"
     showborder="true"
     borderlayer="false"
     inkscape:showpageshadow="true"
     inkscape:window-width="1280"
     inkscape:window-height="964"
     inkscape:window-x="-2"
     inkscape:window-y="-3"
     inkscape:window-maximized="1">
    <inkscape:grid
       units="px"
       spacingy="5px"
       spacingx="5px"
       snapvisiblegridlinesonly="true"
       enabled="true"
       visible="true"
       empspacing="5"
       id="grid2985"
       type="xygrid" />
  </sodipodi:namedview>
  <defs
     id="defs4">
    <linearGradient
       id="linearGradient3900">
      <stop
         style="stop-color:#999999;stop-opacity:1;"
         offset="0"
         id="stop3902" />
      <stop
         style="stop-color:#ffffff;stop-opacity:0;"
         offset="1"
         id="stop3904" />
    </linearGradient>
    <linearGradient
       id="linearGradient3787"
       inkscape:collect="always">
      <stop
         id="stop3789"
         offset="0"
         style="stop-color:#333333;stop-opacity:1" />
      <stop
         style="stop-color:#ffffff;stop-opacity:1"
         offset="0.49603432"
         id="stop3795" />
      <stop
         id="stop3791"
         offset="1"
         style="stop-color:#333333;stop-opacity:1" />
    </linearGradient>
    <linearGradient
       gradientUnits="userSpaceOnUse"
       y2="108"
       x2="195"
       y1="108"
       x1="49.5"
       id="linearGradient3793"
       xlink:href="#linearGradient3787"
       inkscape:collect="always" />
    <linearGradient
       y2="108"
       x2="195"
       y1="108"
       x1="49.5"
       gradientUnits="userSpaceOnUse"
       id="linearGradient3798"
       xlink:href="#linearGradient3787"
       inkscape:collect="always" />
    <linearGradient
       inkscape:collect="always"
       xlink:href="#linearGradient3900"
       id="linearGradient3906"
       x1="31.25"
       y1="34"
       x2="150"
       y2="34"
       gradientUnits="userSpaceOnUse" />
  </defs>
  <metadata
     id="metadata7">
    <rdf:RDF>
      <cc:Work
         rdf:about="">
        <dc:format>image/svg+xml</dc:format>
        <dc:type
           rdf:resource="http://purl.org/dc/dcmitype/StillImage" />
        <dc:title />
      </cc:Work>
    </rdf:RDF>
  </metadata>
  <g
     transform="translate(0,-852.3622)"
     id="layer1"
     inkscape:groupmode="layer"
     inkscape:label="Layer 1">
    <g
       transform="translate(-2,-2)"
       id="g3865">
      <path
         inkscape:connector-curvature="0"
         id="path3867"
         d="m 29.9375,944.96875 c -14.416799,1.05475 -29.99028644,2.35729 -42.46875,9.96875 -0.586698,3.04714 6.361531,5.89826 8.1532884,8.86929 19.4152686,17.72051 38.1677736,36.31791 57.9886486,53.50181 23.527321,16.1632 54.276143,16.0636 81.045563,9.1914 4.44581,-1.6021 10.05909,-2.9973 12.65625,-7.2812 -21.57095,-20.23129 -43.15757,-40.44597 -64.71875,-60.68755 -0.357649,-6.129 -8.430152,-7.47558 -13,-9.40625 -12.857724,-3.62796 -26.323858,-4.53903 -39.65625,-4.15625 z"
         style="opacity:0.09090899;fill:#808080;fill-opacity:1;stroke:none" />
      <path
         inkscape:connector-curvature="0"
         id="path3871"
         d="m 29.90625,944.46875 c -14.61452,1.10803 -30.0712343,2.34405 -42.8125,10.09375 -2.910718,2.36748 3.9338341,4.14304 4.5284023,6.23987 20.6658627,18.87134 40.6460887,38.61542 61.7385347,56.94373 23.627709,16.2151 54.580613,16.1425 81.420563,9.2539 4.63577,-1.7049 10.76124,-3.1574 13.09375,-7.9062 -21.60353,-20.26114 -43.21212,-40.51686 -64.8125,-60.7813 -0.470469,-6.27163 -8.639159,-7.68523 -13.34375,-9.6875 -12.86493,-3.59686 -26.422592,-4.55592 -39.8125,-4.15625 z"
         style="opacity:0.09090899;fill:#808080;fill-opacity:1;stroke:none" />
      <path
         inkscape:connector-curvature="0"
         id="path3875"
         d="m 29.875,943.96875 c -14.651143,1.12129 -30.34625633,2.33122 -43.125,10.25 -3.334386,3.02155 4.2684416,5.14653 5.2285991,7.60927 20.4595359,18.65212 40.2000029,38.25678 61.1008379,56.32438 24.227814,16.6146 56.108793,16.3368 83.483063,8.8164 4.32203,-1.7744 10.16259,-3.2792 11.875,-8.0626 -21.62066,-20.28569 -43.27585,-40.53575 -64.875,-60.8437 -0.949953,-6.90268 -9.929243,-8.31733 -15.34375,-10.375 C 55.814716,944.48356 42.7449,943.56724 29.875,943.96875 z"
         style="opacity:0.09090899;fill:#808080;fill-opacity:1;stroke:none" />
      <path
         inkscape:connector-curvature="0"
         id="path3879"
         d="m 29.875,943.46875 c -14.822013,1.15098 -30.70737657,2.34772 -43.5625,10.46875 -3.591507,3.27411 4.0837584,5.72679 5.2898836,8.23557 C 11.79159,980.69005 31.464372,999.91527 51.96875,1018 c 23.912108,16.9109 55.66054,17.0661 83.09375,9.9375 5.0218,-1.8622 12.1489,-3.4616 13.90625,-9.25 C 127.40046,998.23002 105.13549,978.09574 84,957.4375 82.51271,950.73285 73.812326,949.19393 68.34375,947.21875 55.864415,943.97017 42.783579,943.07469 29.875,943.46875 z"
         style="opacity:0.09090899;fill:#808080;fill-opacity:1;stroke:none" />
      <path
         inkscape:connector-curvature="0"
         id="path3883"
         d="m 29.84375,942.96875 c -13.837622,0.78796 -27.9367853,2.58874 -40.59375,8.4375 -1.788277,1.10828 -5.611724,2.78546 -4.09375,5.40625 21.875432,20.32823 43.610711,40.84851 65.606499,61.0228 15.69382,11.1861 35.18798,15.9227 54.362251,14.8835 13.30743,-0.6606 27.26469,-1.8149 39.15625,-8.0313 2.32546,-1.4073 4.90189,-3.1877 5.1875,-6.1563 -21.63884,-20.31892 -43.33359,-40.58619 -64.9375,-60.93745 -0.726944,-5.60682 -7.053495,-7.59627 -11.598386,-9.47345 -13.745607,-4.53518 -28.641135,-5.53558 -43.089114,-5.15155 z"
         style="opacity:0.09090899;fill:#808080;fill-opacity:1;stroke:none" />
      <path
         id="path3887"
         style="opacity:0.09090899;fill:#808080;fill-opacity:1;stroke:none"
         d="m 150,1018.3062 c 0,8.2843 -22.38576,15 -50,15 -27.614237,0 -43.083313,-10.8181 -50,-15.3776 l -65,-60.5664 c -5.822058,-5.89345 22.385763,-15 50,-15 27.61424,0 50,6.71573 50,15 z"
         inkscape:connector-curvature="0"
         sodipodi:nodetypes="csccscc" />
      <path
         inkscape:connector-curvature="0"
         id="path3889"
         d="m 29.78125,941.96875 c -14.117428,0.7995 -28.6195103,2.65306 -41.437079,8.80532 -2.345052,1.17853 -6.033873,3.75424 -3.969171,6.66343 21.8625171,20.38877 43.732148,40.96104 65.764036,61.1771 16.005182,11.4505 35.98033,16.2312 55.516864,15.0854 13.30252,-0.6665 27.19104,-1.8982 39.12535,-8.1375 2.70076,-1.5891 6.10814,-4.201 5.5625,-7.625 -21.625,-20.27083 -43.25,-40.54167 -64.875,-60.8125 -0.806809,-5.61366 -7.108858,-7.85784 -11.71875,-9.78125 -14.041276,-4.76245 -29.203756,-5.75809 -43.96875,-5.375 z"
         style="opacity:0.09090899;fill:#808080;fill-opacity:1;stroke:none" />
      <path
         inkscape:connector-curvature="0"
         id="path3893"
         d="m 29.78125,941.46875 c -15.091558,1.11218 -31.2416224,2.50406 -44.34375,10.59375 -3.892297,2.30216 -1.754126,7.21711 1.801559,8.75802 21.2781684,19.53423 42.043703,39.75068 63.635941,58.86698 24.714129,17.3868 57.45948,17.5205 85.70733,9.8985 5.5865,-2.1115 13.9907,-4.5211 14.44892,-11.6798 C 129.42898,997.37743 107.01176,977.22073 85.9375,956.4375 83.097189,948.16916 72.528831,946.57479 65.125,944.375 53.562276,941.82286 41.608943,941.09203 29.78125,941.46875 z"
         style="opacity:0.09090899;fill:#808080;fill-opacity:1;stroke:none" />
      <path
         inkscape:connector-curvature="0"
         id="path3897"
         d="m 29.75,940.96875 c -15.186359,1.11636 -31.4992966,2.54737 -44.65625,10.71875 -3.571202,2.16672 -2.598141,7.17238 1.06992,8.82632 21.5462262,19.76623 42.552565,40.26048 64.43008,59.57998 24.267514,17.166 56.44746,17.5607 84.3977,10.4706 6.43896,-2.1644 16.04274,-4.7066 16.57105,-12.8456 C 129.94143,997.16813 107.55539,977.00784 86.40625,956.21875 83.413664,947.82904 72.84907,946.08555 65.21875,943.875 53.606415,941.34465 41.646633,940.57407 29.75,940.96875 z"
         style="opacity:0.09090899;fill:#808080;fill-opacity:1;stroke:none" />
      <path
         inkscape:connector-curvature="0"
         id="path3901"
         d="m 29.75,940.46875 c -15.328273,1.14195 -31.6691131,2.54475 -44.9375,10.8125 -3.821174,2.32596 -2.918271,7.7763 1.00742,9.60757 21.5680951,19.79027 42.586642,40.28538 64.49258,59.64238 23.536083,16.6739 54.67571,17.493 82,11.2813 7.17868,-2.2388 17.31943,-4.2522 19.625,-12.5937 -1.16723,-5.2589 -8.05381,-8.2735 -11.50589,-12.6338 C 122.64453,989.71912 104.34104,973.13441 86.875,956.09375 84.024092,947.72769 73.769468,945.80748 66.27534,943.62006 54.383591,940.86656 41.975909,940.07512 29.75,940.46875 z"
         style="opacity:0.09090899;fill:#808080;fill-opacity:1;stroke:none" />
      <path
         inkscape:connector-curvature="0"
         id="path3905"
         d="m 29.71875,939.96875 c -15.238811,1.07387 -31.4211272,2.61149 -44.78125,10.59375 -4.364993,2.33873 -3.933136,8.57627 0.53867,10.70132 21.6063673,19.7889 42.605925,40.37768 64.58633,59.67368 21.174681,15.1415 48.952395,17.2388 74.125,13.0313 9.61828,-2.129 21.70869,-3.4678 27.5625,-12.4063 3.17564,-5.8108 -5.19171,-8.6043 -8.05689,-12.5851 -18.69376,-17.84575 -38.25031,-35.20912 -56.41186,-53.3524 -3.314442,-8.57449 -13.974708,-10.54497 -21.875,-12.71875 -11.687381,-2.5785 -23.731294,-3.32639 -35.6875,-2.9375 z"
         style="opacity:0.09090899;fill:#808080;fill-opacity:1;stroke:none" />
    </g>
    <path
       transform="translate(0,852.3622)"
       d="m 150,35 c 0,8.284271 -22.38576,15 -50,15 -27.614237,0 -50,-6.715729 -50,-15 0,-8.284271 22.385763,-15 50,-15 27.61424,0 50,6.715729 50,15 z"
       sodipodi:ry="15"
       sodipodi:rx="50"
       sodipodi:cy="35"
       sodipodi:cx="100"
       id="path2987"
       style="fill:#999999;fill-opacity:1;stroke:none;stroke-width:1;stroke-linejoin:round;stroke-miterlimit:4;stroke-opacity:1;stroke-dasharray:none"
       sodipodi:type="arc" />
    <path
       transform="translate(0,852.3622)"
       sodipodi:nodetypes="csccscc"
       inkscape:connector-curvature="0"
       d="m 150,166 c 0,8.28427 -22.38576,15 -50,15 -27.614237,0 -50,-6.71573 -50,-15 L 50,35 c 0,8.284271 22.385763,15 50,15 27.61424,0 50,-6.715729 50,-15 z"
       style="fill:url(#linearGradient3793);fill-opacity:1;stroke:none;stroke-width:1;stroke-linejoin:round;stroke-miterlimit:4;stroke-opacity:1"
       id="path3764" />
    <path
       sodipodi:nodetypes="ccccccsc"
       inkscape:connector-curvature="0"
       id="path3010"
       d="m 54.999997,913.89344 0,91.00006 c 7.745842,4.7899 23.735441,8.1531 42.4375,8.4375 l 5.125003,0 c 18.70206,-0.2844 34.69166,-3.6476 42.4375,-8.4375 l 0,-91.00006 c -8.0988,5.00819 -25.1994,8.46875 -45.000003,8.46875 -19.800597,0 -36.901198,-3.46056 -45,-8.46875 z"
       style="opacity:0.5;fill:#ff0000;fill-opacity:1;stroke:none" />
    <path
       d="m 121.80724,988.67597 c 0.61884,-0.032 1.02576,-0.044 1.64171,-0.1442 1.84788,-0.299 3.13086,-0.7256 4.14327,-1.5014 1.41267,-1.0468 2.26027,-2.6781 2.26027,-4.2621 0,-1.008 -0.32962,-1.8549 -0.96532,-2.4254 -0.52285,-0.4831 -1.38472,-0.7691 -2.43506,-0.8994 -0.84156,-0.1044 -1.79935,-0.082 -2.78994,0.078 0,0 -1.56931,0.2137 -3.1402,0.4166 -1.57089,0.2029 -3.14834,0.3483 -3.14834,0.3483 0,0 0,0.456 0,0.456 1.76737,0.018 2.00587,0.2313 2.00587,1.9593 0,0 0,1.5561 0,3.464 0,1.1146 0,2.3493 0,3.4639 0,1.9079 0,3.4641 0,3.4641 0,2.016 -0.19073,2.2777 -2.00587,2.6247 0,0 0,0.456 0,0.456 0,0 1.67265,-0.1577 3.33875,-0.3729 1.66609,-0.2152 3.32884,-0.4533 3.32884,-0.4533 0,0 0,-0.456 0,-0.456 -1.87157,0.2308 -2.23398,-0.096 -2.23398,-1.8481 0,0 0,-4.368 0,-4.368 m 0,-7.2 c 0,-0.648 0.16662,-0.8375 0.80925,-0.9205 1.42538,-0.1841 2.50048,-0.1595 3.26133,0.1802 0.95433,0.426 1.40832,1.3078 1.40832,2.6832 0,1.2436 -0.39812,2.2338 -1.18498,2.95 -0.68617,0.6245 -1.66222,1.0792 -2.93724,1.2439 -0.47602,0.061 -0.80925,0.08 -1.35668,0.1032 0,0 0,-1.56 0,-3.12 0,-1.56 0,-3.12 0,-3.12 m -7.48428,2.6173 c 0,-2.448 0.28843,-2.8387 2.24685,-3.2718 0,0 0,-0.456 0,-0.456 0,0 -1.38495,0.1399 -2.77356,0.2364 -1.3886,0.096 -2.77721,0.193 -2.77721,0.193 0,0 0,0.456 0,0.456 1.86744,0.014 2.2505,0.5156 2.2505,2.9156 0,0 0,1.62 0,3.24 0,1.62 0,3.24 0,3.24 0,1.632 -0.16759,2.5557 -0.55065,3.3023 -0.64641,1.1969 -2.17893,2.0429 -3.97733,2.1172 -1.70248,0.07 -2.8777,-0.4662 -3.52562,-1.5853 -0.43194,-0.7621 -0.59993,-1.6478 -0.59993,-3.1598 0,0 0,-1.92 0,-3.84 0,-1.92 0,-3.84 0,-3.84 0,-1.728 0.26498,-1.9593 2.18327,-2.2066 0,0 0,-0.456 0,-0.456 0,0 -1.69733,0.04 -3.39512,0.063 -1.69778,0.023 -3.39557,0 -3.39557,0 0,0 0,0.456 0,0.456 1.89576,0.1699 2.15973,0.4211 2.15973,2.1731 0,0 0,1.872 0,3.744 0,1.872 0,3.744 0,3.744 0,2.0608 0.47885,3.577 1.46002,4.5747 0.99564,1.0125 2.50859,1.4926 4.56171,1.4077 1.17794,-0.049 2.19079,-0.2522 3.03185,-0.6475 1.02511,-0.4817 1.7981,-1.193 2.311,-2.1251 0.57459,-1.0479 0.79006,-2.1669 0.79006,-4.0149 0,0 0,-1.566 0,-3.132 0,-1.566 0,-3.132 0,-3.132 m -23.322227,-3.712 c -1.52334,-0.1059 -2.900631,0.1829 -4.057206,0.7587 -1.211332,0.6031 -2.184307,1.5658 -2.83676,2.8074 -0.594606,1.1315 -0.920706,2.4745 -0.920706,4.0084 0,1.0789 0.174221,2.164 0.496625,3.1729 0.351698,1.1005 0.88217,2.0892 1.555043,2.8817 0.697351,0.83 1.582338,1.5324 2.557453,2.0518 0.961876,0.5124 2.015681,0.7964 3.061903,0.8691 1.54471,0.1073 2.934875,-0.1946 4.105017,-0.8005 1.255288,-0.6499 2.257518,-1.6561 2.928778,-2.9427 0.61354,-1.176 0.95011,-2.5696 0.95011,-4.1188 0,-1.1253 -0.15611,-2.1775 -0.46069,-3.1282 -0.33848,-1.0566 -0.86078,-1.972 -1.55497,-2.7587 -0.761228,-0.8659 -1.650323,-1.536 -2.639669,-1.9999 -0.974007,-0.4568 -2.044717,-0.722 -3.184928,-0.8012 m 0,0.864 c 1.101306,0.077 2.20381,0.5635 3.067044,1.3672 0.728986,0.6922 1.283168,1.7195 1.628315,2.9948 0.267916,0.9899 0.409878,2.1293 0.409878,3.3774 0,1.416 -0.311724,3.0591 -0.791298,4.2873 -0.215809,0.5911 -0.623449,1.1742 -1.174959,1.7034 -0.839255,0.8054 -1.917967,1.1867 -3.186862,1.0985 -1.101306,-0.077 -2.18039,-0.563 -3.016305,-1.3894 -0.691916,-0.6833 -1.242983,-1.7624 -1.595376,-3.0449 -0.280124,-1.0194 -0.434708,-2.1674 -0.434708,-3.3472 0,-1.0878 0.132031,-2.1388 0.366761,-3.0612 0.29354,-1.1536 0.747686,-2.1062 1.305073,-2.678 0.931449,-0.9402 2.105658,-1.3994 3.422437,-1.3079 m -11.233297,-2.0126 c 0,0 -0.497508,-0.081 -0.497508,-0.081 -0.09476,0.5367 -0.355363,0.7585 -0.758106,0.6934 -0.236909,-0.038 -0.639654,-0.1995 -1.042397,-0.4567 -0.87656,-0.4778 -1.751572,-0.8202 -2.504997,-0.9689 -1.012414,-0.1998 -2.053162,0.026 -2.823766,0.5391 -0.817307,0.5503 -1.237638,1.4587 -1.237638,2.7067 0,1.1044 0.33994,2.0987 1.126472,3.1317 0.580885,0.7629 1.414471,1.5049 2.534675,2.3275 1.695205,1.2465 2.928945,2.4198 3.521216,3.4276 0.213217,0.3465 0.331671,0.8696 0.331671,1.4456 0,1.608 -1.192356,2.5639 -2.911105,2.2246 -1.183302,-0.2335 -2.171398,-0.8494 -3.019404,-1.9105 -0.653694,-0.8179 -1.215383,-1.9407 -1.723635,-3.3357 0,0 -0.537088,-0.1273 -0.537088,-0.1273 0,0 0.175137,1.3135 0.350275,2.627 0.175137,1.3135 0.350275,2.627 0.350275,2.627 0,0 0.513736,0.1218 0.513736,0.1218 0.02335,-0.4505 0.303572,-0.7201 0.653847,-0.6371 0.256867,0.061 0.657283,0.2352 1.104629,0.4915 0.894692,0.5365 1.830683,0.9466 2.778315,1.0999 1.31167,0.2123 2.480568,-0.038 3.340136,-0.6307 0.925823,-0.6382 1.497439,-1.7054 1.497439,-2.9872 0,-1.1671 -0.462871,-2.2329 -1.488014,-3.394 -0.703546,-0.7968 -1.674107,-1.6235 -2.946817,-2.5229 -0.947401,-0.6834 -1.670489,-1.3266 -2.209037,-1.8974 -0.875486,-0.9279 -1.254556,-1.7131 -1.254556,-2.5155 0,-1.32 0.988871,-2.0368 2.448631,-1.7487 1.059504,0.2091 2.057359,0.8103 2.886538,1.8084 0.734414,0.8868 1.066087,1.5645 1.44514,3.0418 0,0 0.594485,0.081 0.594485,0.081 0,0 -0.130907,-1.2949 -0.261815,-2.5898 -0.130908,-1.2949 -0.261597,-2.5913 -0.261597,-2.5913 m 42.135014,-8.041 c -1.07105,0.066 -1.30908,-0.1429 -2.14213,-1.8114 0,0 -0.88885,-1.939 -1.98067,-4.3341 -0.63786,-1.3993 -1.34444,-2.9493 -1.98231,-4.3485 -1.09181,-2.3951 -1.98538,-4.3849 -1.98538,-4.3849 0,0 -0.47883,0.033 -0.47883,0.033 0,0 -0.74567,1.8164 -1.65994,4.0433 -0.53412,1.3011 -1.12603,2.738 -1.661,4.0241 -0.91569,2.2013 -1.66253,3.9967 -1.66253,3.9967 -0.45635,1.0608 -0.80243,1.8412 -1.09376,2.4167 -0.68835,1.3596 -1.07089,1.5748 -1.88023,1.6196 0,0 0,0.456 0,0.456 0,0 4.74841,-0.1736 4.74841,-0.1736 0,0 0,-0.456 0,-0.456 -1.15097,0.048 -1.63055,-0.2446 -1.63055,-0.9166 0,-0.288 0.0719,-0.627 0.19183,-0.944 0,0 1.10302,-2.8535 1.10302,-2.8535 0,0 1.56958,-0.083 3.13775,-0.1924 1.56816,-0.109 3.13392,-0.2466 3.13392,-0.2466 0,0 0.97922,2.2074 0.97922,2.2074 0.2866,0.6198 0.45378,1.2273 0.45378,1.5633 0,0.6 -0.40602,0.832 -1.67183,0.9808 0,0 0,0.456 0,0.456 0,0 1.52256,-0.1501 3.04512,-0.3002 1.52256,-0.1501 3.03611,-0.3794 3.03611,-0.3794 0,0 0,-0.456 0,-0.456 m -11.70643,-4.6297 c 0,0 0.6891,-1.6837 1.37742,-3.3815 0.68831,-1.6978 1.37663,-3.3957 1.37663,-3.3957 0,0 0.6943,1.6018 1.38861,3.2035 0.6943,1.6018 1.387,3.1846 1.387,3.1846 0,0 -1.38102,0.115 -2.76364,0.2111 -1.38262,0.096 -2.76602,0.178 -2.76602,0.178 m -5.52413,2.2983 c 0,0 -0.67192,0.01 -0.67192,0.01 -0.64738,1.4073 -1.24585,2.2272 -2.19874,2.6911 -0.81319,0.396 -1.88449,0.4875 -3.46455,0.4659 0,0 -0.64792,-0.01 -0.64792,-0.01 -1.17585,-0.016 -2.182633,-0.1896 -2.350484,-0.3645 -0.119894,-0.077 -0.167851,-0.343 -0.167851,-0.751 0,0 0,-1.482 0,-2.964 0,-1.482 0,-2.964 0,-2.964 0,0 3.694185,0.1 3.694185,0.1 1.96776,0.027 2.32771,0.3439 2.63967,2.3402 0,0 0.55193,-0.01 0.55193,-0.01 0,0 0,-1.392 0,-2.784 0,-1.392 0,-2.784 0,-2.784 0,0 -0.55193,0.01 -0.55193,0.01 -0.16798,0.9817 -0.26396,1.3403 -0.52793,1.6727 -0.31196,0.4038 -0.98388,0.5866 -2.11174,0.5711 0,0 -3.694185,-0.1 -3.694185,-0.1 0,0 0,-1.332 0,-2.664 0,-1.332 0,-2.664 0,-2.664 0,-0.672 0.143872,-0.81 0.791299,-0.7833 0,0 3.238846,0.072 3.238846,0.072 1.20886,0.017 1.98373,0.1093 2.50746,0.3728 0.65107,0.3275 0.914,0.9682 1.14008,2.1621 0,0 0.59993,-0.01 0.59993,-0.01 0,0 -0.072,-3.431 -0.072,-3.431 0,0 -1.90805,0.023 -4.24747,-0.01 -1.36673,-0.019 -2.88017,-0.059 -4.245872,-0.1151 -2.337649,-0.097 -4.24147,-0.2259 -4.24147,-0.2259 0,0 0,0.456 0,0.456 1.771665,0.2672 2.083354,0.6167 2.083354,2.2967 0,0 0,1.5957 0,3.552 0,1.143 0,2.409 0,3.552 0,1.9564 0,3.552 0,3.552 0,1.68 -0.33563,2.0248 -2.083354,2.0233 0,0 0,0.456 0,0.456 0,0 1.936118,0.1306 4.313373,0.2289 1.388849,0.057 2.928019,0.095 4.317919,0.1141 2.37908,0.033 4.31949,0 4.31949,0 0,0 1.07987,-4.0708 1.07987,-4.0708 m -22.786722,-4.1084 c 0.618834,0.1279 1.023459,0.2042 1.642294,0.2841 1.856505,0.2398 3.151478,0.081 4.17846,-0.3941 1.432998,-0.6267 2.2975,-2.0618 2.2975,-3.6458 0,-1.008 -0.335181,-1.9433 -0.981599,-2.6842 -0.531668,-0.6232 -1.409056,-1.1653 -2.467925,-1.57 -0.8484,-0.3242 -1.817007,-0.5257 -2.812223,-0.6543 0,0 -1.570891,-0.2028 -3.141781,-0.4057 -1.57089,-0.2029 -3.130839,-0.4809 -3.130839,-0.4809 0,0 0,0.456 0,0.456 1.753119,0.4756 1.99003,0.754 1.99003,2.482 0,0 0,1.5561 0,3.464 0,1.1146 0,2.3493 0,3.464 0,1.9079 0,3.464 0,3.464 0,2.016 -0.189529,2.2253 -1.99003,2.102 0,0 0,0.456 0,0.456 0,0 1.655154,0.2903 3.32125,0.5055 1.666096,0.2152 3.333117,0.4222 3.333117,0.4222 0,0 0,-0.456 0,-0.456 -1.886781,-0.258 -2.238254,-0.6888 -2.238254,-2.4408 0,0 0,-4.368 0,-4.368 m 0,-7.2 c 0,-0.648 0.166609,-0.7945 0.809246,-0.7115 1.425379,0.1841 2.513495,0.5052 3.280537,1.0436 0.962075,0.6754 1.420488,1.6799 1.420488,3.0553 0,1.2436 -0.40209,2.1256 -1.195345,2.6363 -0.691743,0.4453 -1.683226,0.6282 -2.958248,0.4635 -0.476027,-0.062 -0.809248,-0.1285 -1.356678,-0.2472 0,0 0,-1.56 0,-3.12 0,-1.56 0,-3.12 0,-3.12 m 41.182992,-24.93059 c 0,0 0,1.79688 0,4 0,1.2871 0,2.71286 0,3.99997 0,2.20313 0,4.00003 0,4.00003 0,2.04 -0.26182,2.33782 -2.23733,2.71295 0,0 0,0.456 0,0.456 0,0 1.741,-0.20033 3.47043,-0.48014 1.72944,-0.27981 3.45522,-0.5799 3.45522,-0.5799 0,0 0,-0.456 0,-0.456 -1.93065,0.28504 -2.27067,-0.0197 -2.27067,-1.77175 0,0 0,-1.83641 0,-4.088 0,-1.31542 0,-2.77255 0,-4.08797 0,-2.2516 0,-4.08803 0,-4.08803 0,0 1.2793,-0.20698 1.2793,-0.20698 1.34115,-0.21699 2.13408,-0.30027 2.66679,0.0251 0.54003,0.32988 0.80667,1.0467 1.07929,2.32192 0,0 0.56285,-0.12173 0.56285,-0.12173 0,0 -0.14011,-4.0468 -0.14011,-4.0468 0,0 -1.97631,0.45874 -4.42942,0.85563 -1.43315,0.23188 -3.01994,0.49389 -4.45978,0.67984 -2.46456,0.31829 -4.48059,0.52613 -4.48059,0.52613 0,0 -0.1433,4.09412 -0.1433,4.09412 0,0 0.5732,-0.0565 0.5732,-0.0565 0.28688,-1.33755 0.56778,-2.13347 1.11217,-2.62794 0.54333,-0.4935 1.3451,-0.72202 2.67667,-0.89399 0,0 1.28528,-0.16599 1.28528,-0.16599 m -11.2914,13.39707 c 0,1.8 -0.31005,2.13114 -2.32426,2.28639 0,0 0,0.456 0,0.456 0,0 1.77959,-0.0885 3.55725,-0.21207 1.77765,-0.12353 3.55167,-0.29022 3.55167,-0.29022 0,0 0,-0.456 0,-0.456 -1.95843,0.12109 -2.34263,-0.20179 -2.34263,-1.95379 0,0 0,-1.59563 0,-3.552 0,-1.14295 0,-2.40902 0,-3.55198 0,-1.95637 0,-3.55202 0,-3.55202 0,-1.75199 0.33643,-2.07241 2.34263,-2.36621 0,0 0,-0.456 0,-0.456 0,0 -1.77402,0.16669 -3.55167,0.29022 -1.77766,0.12353 -3.55725,0.21207 -3.55725,0.21207 0,0 0,0.456 0,0.456 2.03819,0.0358 2.32426,0.25762 2.32426,2.03361 0,0 0,1.59563 0,3.552 0,1.14295 0,2.40902 0,3.55198 0,1.95637 0,3.55202 0,3.55202 m -3.67495,-1.37779 c -0.40763,0.92885 -0.74334,1.49472 -1.10302,1.91759 -0.83925,0.97069 -2.15911,1.41981 -4.15087,1.44708 0,0 -1.60779,0.013 -1.60779,0.013 -1.75178,-0.024 -2.06375,-0.17225 -2.06375,-1.01225 0,0 0,-1.69985 0,-3.784 0,-1.2176 0,-2.56637 0,-3.78397 0,-2.08416 0,-3.78403 0,-3.78403 0,-1.70399 0.33596,-2.0354 2.23172,-2.12945 0,0 0,-0.456 0,-0.456 0,0 -1.69178,-0.0232 -3.38357,-0.0463 -1.69179,-0.0232 -3.381826,-0.10989 -3.381826,-0.10989 0,0 0,0.456 0,0.456 1.774426,0.21734 2.086156,0.56623 2.086156,2.24622 0,0 0,1.59563 0,3.552 0,1.14295 0,2.40902 0,3.55198 0,1.95637 0,3.55202 0,3.55202 0,1.68 -0.33571,2.02613 -2.086156,2.07378 0,0 0,0.456 0,0.456 0,0 1.931456,0.09 4.301706,0.12248 1.38475,0.019 2.91868,0.0319 4.30343,0.0129 2.37028,-0.0325 4.30246,-0.0964 4.30246,-0.0964 0,0 1.15098,-4.22357 1.15098,-4.22357 0,0 -0.59947,0.0248 -0.59947,0.0248 m -22.235091,-3.436 c 0.620966,0.10922 1.026984,0.17325 1.647949,0.23448 1.862898,0.18367 3.158928,-0.004 4.18841,-0.50886 1.436486,-0.66818 2.300817,-2.11624 2.300817,-3.70024 0,-1.008 -0.335702,-1.93388 -0.983129,-2.65664 -0.532496,-0.60828 -1.41107,-1.13578 -2.472516,-1.50982 -0.850464,-0.29968 -1.819987,-0.48079 -2.818632,-0.57925 0,0 -1.576299,-0.15541 -3.152599,-0.31083 -1.5763,-0.15541 -3.144264,-0.38397 -3.144264,-0.38397 0,0 0,0.456 0,0.456 1.7613,0.41947 1.999315,0.69022 1.999315,2.41821 0,0 0,1.5561 0,3.464 0,1.11463 0,2.34934 0,3.46398 0,1.9079 0,3.46402 0,3.46402 0,2.016 -0.190413,2.23141 -1.999315,2.16579 0,0 0,0.456 0,0.456 0,0 1.663497,0.23798 3.33533,0.40281 1.671834,0.16483 3.343775,0.32838 3.343775,0.32838 0,0 0,-0.456 0,-0.456 -1.891373,-0.20343 -2.245141,-0.62806 -2.245141,-2.38006 0,0 0,-4.368 0,-4.368 m 0,-7.2 c 0,-0.648 0.167184,-0.79952 0.812033,-0.73594 1.430287,0.14102 2.520233,0.43752 3.289142,0.95376 0.964417,0.64749 1.423945,1.63876 1.423945,3.01417 0,1.24357 -0.403068,2.13726 -1.198254,2.67085 -0.693426,0.46531 -1.686103,0.66952 -2.965517,0.54338 -0.477665,-0.0471 -0.812033,-0.10406 -1.361349,-0.20622 0,0 0,-1.56 0,-3.12 0,-1.56 0,-3.12 0,-3.12 m -7.418012,-2.98108 c 0,0 -0.497507,-0.0805 -0.497507,-0.0805 -0.09476,0.53667 -0.355363,0.75851 -0.758107,0.69335 -0.236908,-0.0383 -0.639652,-0.1995 -1.042396,-0.45666 -0.87656,-0.47782 -1.743429,-0.86556 -2.496854,-1.01426 -1.012414,-0.19981 -2.042426,-0.0236 -2.81303,0.48975 -0.817307,0.55032 -1.237638,1.45871 -1.237638,2.70671 0,1.10437 0.33994,2.09874 1.126472,3.13168 0.580886,0.76288 1.403735,1.55426 2.523939,2.37687 1.695206,1.24657 2.920803,2.46509 3.513072,3.47291 0.213218,0.3465 0.331672,0.86966 0.331672,1.44566 0,1.608 -1.184212,2.51852 -2.902962,2.1793 -1.183302,-0.23354 -2.168877,-0.86108 -3.009936,-1.9541 -0.648339,-0.84256 -1.214115,-1.94651 -1.722367,-3.34152 0,0 -0.537088,-0.12728 -0.537088,-0.12728 0,0 0.175137,1.3135 0.350275,2.62701 0.175137,1.3135 0.350275,2.62701 0.350275,2.62701 0,0 0.513736,0.12174 0.513736,0.12174 0.02335,-0.45047 0.303573,-0.72006 0.653847,-0.63705 0.256868,0.0609 0.653847,0.25094 1.097528,0.52409 0.887362,0.57028 1.83284,0.93116 2.77462,1.11704 1.303571,0.25727 2.472485,0.007 3.332053,-0.58575 0.925823,-0.63823 1.492793,-1.67348 1.492793,-2.95535 0,-1.16705 -0.458225,-2.26477 -1.483368,-3.42585 -0.703546,-0.79683 -1.67637,-1.61093 -2.94122,-2.55406 -0.94155,-0.71598 -1.667942,-1.34076 -2.206491,-1.91156 -0.875486,-0.92789 -1.248607,-1.74047 -1.248607,-2.54288 0,-1.32 0.982923,-2.00947 2.442682,-1.72137 1.059504,0.2091 2.049216,0.8556 2.878394,1.85375 0.734416,0.88683 1.066089,1.56449 1.445141,3.04182 0,0 0.592271,0.0958 0.592271,0.0958 0,0 -0.1303,-1.29908 -0.2606,-2.59816 -0.130299,-1.29908 -0.260599,-2.59816 -0.260599,-2.59816"
       style="font-size:24px;font-style:normal;font-variant:normal;font-weight:normal;font-stretch:normal;text-align:center;line-height:100%;letter-spacing:0px;word-spacing:0px;writing-mode:lr-tb;text-anchor:middle;fill:#3f7f00;fill-opacity:1;stroke:none;font-family:Nimbus Roman No9 L;-inkscape-font-specification:Nimbus Roman No9 L"
       id="path1058"
       inkscape:connector-curvature="0" />
    <path
       sodipodi:type="arc"
       style="fill:url(#linearGradient3906);fill-opacity:1;stroke:none"
       id="path3848"
       sodipodi:cx="100"
       sodipodi:cy="35"
       sodipodi:rx="50"
       sodipodi:ry="15"
       d="M 150,35 A 50,15 0 1 1 50,35 50,15 0 1 1 150,35 z"
       transform="matrix(0.8,0,0,1,20,852.3622)" />
  </g>
</svg>
